<?xml version="1.0" encoding="UTF-8" standalone="no"?>
<!-- Created with Inkscape (http://www.inkscape.org/) -->

<svg
   width="5420.4321"
   height="1395.088"
   viewBox="0 0 1434.156 369.11703"
   version="1.1"
   id="svg1"
   xml:space="preserve"
   xmlns="http://www.w3.org/2000/svg"
   xmlns:svg="http://www.w3.org/2000/svg"><defs
     id="defs1" /><g
     id="layer1"
     transform="matrix(0.91353427,0,0,0.91353427,161.51859,65.384762)"><path
       style="fill:#ffffff"
       d="m 906.39362,314.69838 c -0.2312,-0.374 155.94378,-157.37894 156.54698,-157.37894 0.23,0 5.8925,5.47611 12.5834,12.16912 l 12.1653,12.16912 -15.5427,15.61213 c -8.5484,8.58667 -38.3977,38.5912 -66.3318,66.67672 l -50.78908,51.06458 h -24.2194 c -13.6981,0 -24.3034,-0.13585 -24.4127,-0.31273 z m -1066.13235,-1.18657 c -0.092,-0.24254 -0.12674,-72.03723 -0.0771,-159.54375 l 0.0902,-159.1027828 24.07708,-0.090643 24.07709,-0.090643 V 154.31839 313.95278 h -23.99997 c -18.87553,0 -24.03569,-0.0942 -24.1673,-0.44097 z m 89.177848,-23.45924 23.9002,-23.90021 12.0815,12.08149 12.0815,12.08149 -11.8148,11.81872 -11.8148,11.81872 h -24.1669 -24.16691 z m 23.7077,-35.73399 c -30.0653,-32.7988 -54.725468,-59.8116 -54.800448,-60.02843 -0.0751,-0.21731 0.0859,-0.30897 0.35885,-0.20423 0.27234,0.10451 12.197148,3.49994 26.499598,7.54541 l 26.0044,7.3554 52.4820999,52.48302 52.4822001,52.48303 H 31.992218 7.8108179 Z M 223.92022,185.80528 V 57.657776 l 23.9159,-23.913937 c 13.1537,-13.152666 24.0281,-23.8017071 24.1652,-23.664537 0.1372,0.137171 0.2494,68.564818 0.2494,152.061438 v 151.81204 h -24.1652 -24.1653 z m 407.5463,-4.76118 132.9087,-132.908676 12.0825,12.082513 12.0825,12.082513 -120.8258,120.82616 -120.8258,120.82617 h -24.1654 -24.1654 z m 528.63178,66.32594 -66.5927,-66.22255 12.263,-12.2668 c 6.7447,-6.74674 12.3941,-12.2668 12.5543,-12.2668 0.1601,0 24.7275,24.32608 54.5942,54.05795 l 54.3031,54.05796 v 24.4351 c 0,13.43931 -0.1191,24.43343 -0.2646,24.43139 -0.1455,-0.002 -30.2313,-29.80385 -66.8573,-66.22625 z m -354.88768,-13.41011 -79.464,-79.46193 79.4632,-79.463485 79.4632,-79.4634865 79.4631,79.4630965 79.46308,79.463095 -79.46238,79.46232 -79.4623,79.46231 z m 136.701,-22.5777 57.0614,-57.06221 -57.0622,-57.061401 -57.0623,-57.061398 -57.1491,57.15 -57.1492,57.149999 56.9728,56.97361 c 31.335,31.33549 57.0525,56.97361 57.15,56.97361 0.098,0 25.8548,-25.67799 57.2386,-57.06221 z M 283.42202,311.9537 c -0.1293,-0.12935 -0.2351,-11.00372 -0.2351,-24.16527 v -23.9301 h 74.7016 74.7017 l 23.9139,23.91588 c 13.1527,13.15373 23.8017,24.02811 23.6646,24.16528 -0.3169,0.31684 -196.4299,0.33101 -196.7467,0.0142 z m 215.8554,-13.18752 c -0.107,-0.28161 -0.154,-68.77451 -0.1044,-152.20646 l 0.09,-151.6944428 24.0771,-0.090643 24.0771,-0.090643 V 123.01033 251.33667 l -23.9727,23.97076 c -16.1118,16.11046 -24.0365,23.80286 -24.1673,23.45875 z M -2.3875821,245.86579 -14.379082,233.87047 105.21132,114.27968 224.80172,-5.3111117 h 23.9009 c 13.1455,0 23.9009,0.1191424 23.9009,0.2647609 0,0.2896365 -262.532002,262.9074608 -262.8215021,262.9074608 -0.098,0 -5.5743,-5.39789 -12.1696,-11.99532 z M 283.18692,154.85 v -23.98889 h 74.878 74.8781 l 23.7233,23.72528 c 13.0478,13.0489 23.7233,23.8439 23.7233,23.98889 0,0.14498 -44.3706,0.26361 -98.6014,0.26361 h -98.6013 z m 795.77638,10.31678 -11.5514,-11.55545 11.7318,-11.72792 11.7318,-11.72791 11.5515,11.55547 c 6.3534,6.35552 11.5515,11.71426 11.5515,11.90832 0,0.46103 -22.6497,23.10293 -23.1109,23.10293 -0.1941,0 -5.551,-5.19995 -11.9043,-11.55544 z M -101.63489,154.17471 c 0.0647,-0.17738 33.692508,-36.13426 74.728508,-79.904167 l 74.6109,-79.5816547 h 23.9023 c 13.1462,0 23.9023,0.1192077 23.9023,0.264906 0,0.1456983 -32.5214,32.7859797 -72.2697,72.5339587 l -72.2697,72.269057 -26.0456,7.3702 c -14.325,4.05362 -26.187488,7.37021 -26.361048,7.37021 -0.17355,0 -0.26264,-0.14513 -0.19796,-0.32251 z M 1021.3303,109.31476 C 998.26522,86.356937 962.92352,51.142303 942.79312,31.060015 L 906.19242,-5.4532363 V -29.665044 c 0,-13.316495 0.1025,-24.314322 0.2278,-24.439615 0.1253,-0.125294 30.8816,30.28856 68.3473,67.586342 37.46568,37.297783 78.28098,77.928979 90.70068,90.291547 l 22.5812,22.4774 -12.3913,12.40281 -12.3912,12.40281 z m 84.0948,29.40378 -12.2576,-12.26303 23.7417,-23.81456 c 13.058,-13.098009 42.7389,-42.90533 65.9577,-66.238491 l 42.216,-42.4239292 24.6166,0.090596 24.6165,0.090596 -77.9397,78.3166672 c -42.8668,43.074171 -78.1093,78.359081 -78.3167,78.410931 -0.2073,0.0518 -5.8928,-5.42411 -12.6345,-12.16878 z m -324.20688,-83.619077 -8.7286,-8.733871 8.8195,-8.814178 8.8194,-8.814178 8.8195,8.814178 8.8195,8.814178 -8.7287,8.733871 c -4.8007,4.803628 -8.8104,8.73387 -8.9103,8.73387 -0.1,0 -4.1095,-3.930242 -8.9103,-8.73387 z m 22.4922,-22.310653 -11.9906,-11.994524 13.0491,-13.0526988 13.0491,-13.0526989 h 23.9025 c 13.1464,0 23.9025,0.1194847 23.9025,0.2655216 0,0.2897768 -49.4553,49.8289231 -49.7446,49.8289231 -0.098,0 -5.5732,-5.397536 -12.168,-11.994523 z m -520.2884,8.23156 c -0.1293,-0.129352 -0.2351,-11.003727 -0.2351,-24.165278 V -7.0750006 h 74.7016 74.7017 l 23.8997,23.9016606 c 13.1449,13.145913 23.8997,24.020288 23.8997,24.165277 0,0.326153 -196.6415,0.354538 -196.9676,0.02843 z"
       id="path1" /></g></svg>
